<svg width="135" height="36" viewBox="0 0 135 36" fill="none" xmlns="http://www.w3.org/2000/svg">
<g clip-path="url(#clip0_642_451)">
<path d="M12.7881 14.3936L7.79876 19.383L0.251953 2.09204H7.79546L12.7881 14.3936ZM29.2398 2.40924L14.8169 35.4513L9.15679 22.4955L14.0768 17.5756L15.0911 20.0735L17.2422 14.3936L29.2398 2.40924Z" fill="#0ABAB5" stroke="#0ABAB5" stroke-width="0.330421"/>
<path d="M72.3627 18.5272L66.1343 24.7589C66.0979 24.3657 66.0781 23.9626 66.0781 23.5496V3.30803H72.3561L72.3627 18.5272ZM91.9104 2.12512V22.2279C91.9503 24.4261 91.3486 26.5882 90.179 28.4497C89.0218 30.2547 87.4061 31.7199 85.497 32.6957C83.4738 33.7365 81.2263 34.2652 78.9513 34.2354C76.6976 34.2637 74.4718 33.7347 72.4718 32.6957C70.5718 31.7155 68.9646 30.2508 67.8128 28.4497C67.518 27.9875 67.2584 27.5038 67.0363 27.0025L72.3627 21.6629V22.0891C72.3708 23.1265 72.6884 24.1378 73.2747 24.9935C73.8867 25.9246 74.7112 26.697 75.6802 27.247C76.6729 27.8243 77.803 28.1233 78.9513 28.1127C80.1629 28.1358 81.359 27.8371 82.4174 27.247C83.3925 26.7053 84.2187 25.9312 84.8229 24.9935C85.3969 24.1332 85.7059 23.1234 85.7117 22.0891V8.32382L91.9104 2.12512Z" fill="#0ABAB5" stroke="#0ABAB5" stroke-width="0.330421"/>
<path d="M102.282 23.3711L96.0039 29.6491V1.98627H102.282V23.3711ZM117.28 27.8219V33.8884H96.2319L102.298 27.8219H117.28Z" fill="#0ABAB5" stroke="#0ABAB5" stroke-width="0.330421"/>
<path d="M122.256 8.0561H114.795V1.98627H134.6L122.256 14.3407V8.0561ZM122.256 18.808L128.534 12.53V33.8884H122.256V18.808Z" fill="#0ABAB5" stroke="#0ABAB5" stroke-width="0.330421"/>
<mask id="mask0_642_451" style="mask-type:luminance" maskUnits="userSpaceOnUse" x="13" y="-11" width="64" height="61">
<path d="M58.9713 -10.0534L13.7812 11.2885L31.6351 49.0928L76.8251 27.7508L58.9713 -10.0534Z" fill="white"/>
</mask>
<g mask="url(#mask0_642_451)">
<path d="M27.6855 21.2301L39.3494 6.91296L55.1534 6.98896C55.9272 6.98227 56.6893 7.17821 57.3639 7.55728C57.9957 7.91188 58.5024 8.45316 58.8145 9.10696L62.7795 17.5294C63.0829 18.1785 63.1787 18.9055 63.0538 19.611C62.9117 20.3665 62.5784 21.073 62.0856 21.6629L53.7557 31.8862C53.2353 32.5146 52.5832 33.0212 51.8456 33.37C51.1079 33.7189 50.3027 33.9015 49.4867 33.905L36.2963 33.8423C35.5226 33.848 34.7608 33.6521 34.0858 33.2739C33.4623 32.9215 32.9618 32.3864 32.6518 31.7408L30.2694 26.6953" stroke="#0ABAB5" stroke-width="1.98252" stroke-linecap="round" stroke-linejoin="round"/>
<path d="M43.6777 21.3623C44.4536 21.3403 45.2165 21.1578 45.9182 20.8262C46.62 20.4947 47.2455 20.0213 47.7551 19.4359L57.1622 8.40979M46.1493 21.3325L51.6772 33.0327" stroke="#0ABAB5" stroke-width="1.98252" stroke-linecap="round" stroke-linejoin="round"/>
<path d="M27.6894 21.2301L46.1533 21.316L40.5362 26.1666L22.0723 26.0807L27.6894 21.2301ZM39.35 6.91627L57.8139 7.00218L60.4176 1.3685L41.9636 1.28259L39.35 6.91627Z" stroke="#0ABAB5" stroke-width="1.98252" stroke-linecap="round" stroke-linejoin="round"/>
</g>
<path d="M57.6246 26.5564L56.3789 28.0931L51.2582 18.7035L52.5929 17.0571L62.8386 20.1245L61.5307 21.7379L58.8114 20.8068L56.1599 24.0776L57.6246 26.5564ZM55.3063 22.64L57.2282 20.2692L54.1237 19.2075C53.6965 19.0613 53.3201 18.9199 52.9944 18.7832C53.1845 19.0646 53.3919 19.4146 53.6254 19.8222L55.3063 22.64Z" fill="#0ABAB5"/>
</g>
<defs>
<clipPath id="clip0_642_451">
<rect width="135" height="35.5863" fill="white" transform="translate(0 0.29126)"/>
</clipPath>
</defs>
</svg>
